Coordinates
version=1
nRows=17
nColumns=24
inDegrees=yes

Units are S.I. units (second, meters, Newtons, ...)
Angles are in degrees.

endheader
time	pelvis_tilt	pelvis_list	pelvis_rotation	pelvis_tx	pelvis_ty	pelvis_tz	hip_flexion_r	hip_adduction_r	hip_rotation_r	knee_angle_r	ankle_angle_r	subtalar_angle_r	mtp_angle_r	hip_flexion_l	hip_adduction_l	hip_rotation_l	knee_angle_l	ankle_angle_l	subtalar_angle_l	mtp_angle_l	lumbar_extension	lumbar_bending	lumbar_rotation
      4.36000000	    -14.08584574	      3.46979891	    -14.28351725	      1.92957262	     -0.03580101	     -0.44607258	     -3.53464523	     -1.07839879	      8.01083702	     -9.10164179	      5.15749342	      8.10559201	     13.58331620	     38.66053266	     -3.84102443	    -16.93781729	     -2.53046731	    -15.08285280	     10.81344923	     16.62815200	     12.02673556	     -2.94414766	     11.32287513
      4.36500000	    -14.16625474	      3.50623062	    -14.38092547	      1.93596794	     -0.03653097	     -0.44607027	     -3.62668276	     -1.21807272	      7.78213353	     -9.39562044	      4.93284237	      8.57343272	     13.92984650	     38.82514354	     -3.86535456	    -17.31261151	     -2.61872295	    -14.88026463	     10.86746400	     16.27055626	     12.12249166	     -3.00031123	     11.36571268
      4.37000000	    -14.23232701	      3.53257917	    -14.56446598	      1.94236866	     -0.03722238	     -0.44595194	     -3.72225561	     -1.34202247	      7.80514796	     -9.71174958	      4.69288983	      8.83403953	     14.03588184	     38.96282568	     -3.95887202	    -17.69880858	     -2.78711159	    -14.74677155	     10.70546738	     16.15731149	     12.20586970	     -3.02727282	     11.51554791
      4.37500000	    -14.31149671	      3.57202334	    -14.73335392	      1.94886194	     -0.03793915	     -0.44586131	     -3.78704636	     -1.48586152	      7.74194168	    -10.05675566	      4.45245620	      9.21819102	     14.18949093	     39.14020519	     -4.04678350	    -18.12912355	     -3.09720786	    -14.56112558	     10.60561568	     16.02159909	     12.31022506	     -3.06277835	     11.65351716
      4.38000000	    -14.38248732	      3.59088409	    -14.88323001	      1.95542626	     -0.03865112	     -0.44575758	     -3.86615682	     -1.60982094	      7.66232129	    -10.40573281	      4.18093697	      9.59384248	     14.34680780	     39.31807756	     -4.14954839	    -18.51780899	     -3.51967842	    -14.35850398	     10.47005922	     15.89895580	     12.40413911	     -3.09493499	     11.76388325
      4.38500000	    -14.47648845	      3.62854018	    -14.99872522	      1.96212462	     -0.03939755	     -0.44567961	     -3.91689685	     -1.75382152	      7.50790533	    -10.76069225	      3.87421142	     10.01610057	     14.61397460	     39.52922982	     -4.22427815	    -18.88935349	     -4.03703592	    -14.14743584	     10.31826587	     15.69838876	     12.53734524	     -3.14976827	     11.83200922
      4.39000000	    -14.49823336	      3.61402696	    -15.17355927	      1.96877448	     -0.04004501	     -0.44553587	     -4.04244790	     -1.85678362	      7.52455020	    -11.13076707	      3.53735722	     10.30751135	     14.70918682	     39.63574224	     -4.36889622	    -19.18434394	     -4.59483087	    -13.98793759	     10.01236928	     15.65467892	     12.56893493	     -3.15669481	     11.96101432
      4.39500000	    -14.58535518	      3.67532180	    -15.30875283	      1.97565642	     -0.04077429	     -0.44543610	     -4.07713489	     -2.03982891	      7.36590273	    -11.51530797	      3.18910960	     10.79176504	     14.97979266	     39.81082371	     -4.43312275	    -19.50597579	     -5.19912258	    -13.87091618	      9.68024136	     15.47815501	     12.71738352	     -3.22531244	     12.06939778
      4.40000000	    -14.59652232	      3.66226039	    -15.48933268	      1.98245672	     -0.04140550	     -0.44528481	     -4.19484338	     -2.15725628	      7.36532024	    -11.91571334	      2.80666277	     11.13442975	     15.09975461	     39.87919371	     -4.57838873	    -19.78048616	     -5.83630630	    -13.78813936	      9.31167451	     15.42172367	     12.74709176	     -3.23560421	     12.20247065
      4.40500000	    -14.63598375	      3.70972003	    -15.66692143	      1.98941743	     -0.04206003	     -0.44515166	     -4.25311188	     -2.34568569	      7.28706135	    -12.34289963	      2.41888303	     11.60862792	     15.28650877	     39.95825572	     -4.66781692	    -20.09307638	     -6.46822599	    -13.81158346	      8.88520239	     15.31489240	     12.84172123	     -3.29106586	     12.35377419
      4.41000000	    -14.66867581	      3.76426025	    -15.82356961	      1.99645957	     -0.04269419	     -0.44503910	     -4.31054290	     -2.55005169	      7.15394188	    -12.77860978	      1.99281646	     12.12748254	     15.51755429	     40.01509116	     -4.73234877	    -20.39413236	     -7.09904993	    -13.95038183	      8.42280558	     15.20270106	     12.93484161	     -3.36510071	     12.48020262
      4.41500000	    -14.69200601	      3.83791063	    -15.97718187	      2.00355834	     -0.04328812	     -0.44493694	     -4.35580318	     -2.78371203	      7.00311590	    -13.23628346	      1.53080961	     12.67923420	     15.78676307	     40.04278807	     -4.77070104	    -20.71157088	     -7.70566485	    -14.24376921	      7.91240486	     15.09784038	     13.02590477	     -3.46401097	     12.60619154
      4.42000000	    -14.70804987	      3.95821809	    -16.10984987	      2.01081258	     -0.04384558	     -0.44483944	     -4.38633678	     -3.07919129	      6.73172465	    -13.70749910	      1.00052240	     13.29844192	     16.19315005	     40.03280685	     -4.74167934	    -21.00775314	     -8.24735795	    -14.72936271	      7.29628246	     15.04423364	     13.14382922	     -3.61631694	     12.69049706
      4.42500000	    -14.70636087	      4.05918556	    -16.27186960	      2.01788072	     -0.04432407	     -0.44475055	     -4.39996240	     -3.35563370	      6.61690185	    -14.22212942	      0.48314218	     13.86843794	     16.50363952	     40.01736087	     -4.75263509	    -21.36085855	     -8.81192581	    -15.36903336	      6.70654900	     14.97357078	     13.19996055	     -3.74838382	     12.83722569
      4.43000000	    -14.68332954	      4.22458001	    -16.29358676	      2.02523844	     -0.04479221	     -0.44479888	     -4.44518595	     -3.72560277	      6.15632504	    -14.70739627	     -0.15701704	     14.57738017	     17.18834531	     39.97012663	     -4.58622533	    -21.56996388	     -9.28394779	    -16.30030261	      5.82704272	     15.13247383	     13.28096289	     -3.99248952	     12.82003792
      4.43500000	    -14.65391556	      4.38691390	    -16.43345339	      2.03239815	     -0.04510447	     -0.44474227	     -4.42359887	     -4.09132763	      5.91959685	    -15.25787710	     -0.87397240	     15.20859113	     17.89728536	     39.90020501	     -4.50271014	    -21.82682876	     -9.74630450	    -17.28301709	      4.99462381	     15.22399651	     13.33668682	     -4.20403231	     12.90419356
      4.44000000	    -14.66694298	      4.63887081	    -16.60874658	      2.03962859	     -0.04536213	     -0.44453418	     -4.28947121	     -4.52761658	      5.74709286	    -15.89089392	     -1.56531027	     15.80601603	     18.17981814	     39.87665104	     -4.38280310	    -22.11536843	    -10.21874405	    -18.18924867	      4.27744254	     15.07837544	     13.48810148	     -4.49339824	     13.08413724
